<svg version="1.1" id="Layer_1" xmlns="http://www.w3.org/2000/svg" xmlns:xlink="http://www.w3.org/1999/xlink" x="0px" y="0px"
	 width="100%" viewBox="0 0 640 640" enable-background="new 0 0 640 640" xml:space="preserve">
<path fill="#FFFFFF" opacity="1.000000" stroke="none" 
	d="
M83.913773,476.007263 
	C80.421791,465.814606 74.503731,458.601929 65.666061,452.432220 
	C51.520710,442.557068 42.849911,428.401367 41.327271,410.615540 
	C40.139008,396.735443 44.584724,384.689728 53.367554,374.165070 
	C64.982674,360.246460 79.625771,350.133972 95.468307,341.712433 
	C138.438034,318.870850 184.059906,303.600098 231.843796,294.770569 
	C263.165771,288.982910 294.755219,285.859436 326.657776,286.932983 
	C395.790558,289.259247 461.675598,305.115662 524.054138,335.031403 
	C539.828308,342.596405 555.048218,351.349701 568.370056,362.892487 
	C581.083923,373.908569 590.475708,386.943756 591.297668,404.527374 
	C592.182129,423.448608 584.003845,438.272919 570.079956,450.385437 
	C568.824219,451.477814 567.623352,452.792114 566.149902,453.449432 
	C557.164490,457.457977 553.745911,465.528442 550.001282,473.842560 
	C543.233643,488.868713 535.652588,503.529083 528.384827,518.329224 
	C518.230164,539.008179 501.018311,551.847839 480.634460,561.082336 
	C452.629730,573.769287 422.881195,580.233887 392.763397,585.158997 
	C364.432526,589.791748 335.852509,591.440857 307.161987,590.886475 
	C261.152924,589.997437 215.897659,584.221863 172.145523,569.262756 
	C161.268280,565.543762 150.709625,560.999573 140.532562,555.606018 
	C120.752838,545.123291 108.058792,528.576355 99.333717,508.369263 
	C94.649826,497.521454 89.185913,487.010437 83.913773,476.007263 
M139.538040,366.040924 
	C137.037857,366.044739 134.536819,366.092194 132.037704,366.042725 
	C127.722031,365.957306 125.558578,368.422028 123.739769,373.280945 
	C129.600006,373.280945 134.713898,373.152008 139.816833,373.332703 
	C142.570389,373.430237 145.374451,374.131470 145.234726,377.797272 
	C145.089081,381.618683 142.272339,382.185760 139.227112,382.203735 
	C133.727448,382.236237 128.222168,382.372498 122.729668,382.175049 
	C119.365173,382.054108 117.933823,383.576416 117.363022,386.657806 
	C115.914719,394.476379 118.227554,401.101715 123.495270,406.851318 
	C128.138458,411.919312 133.931625,414.969971 140.494553,416.836487 
	C148.122101,419.005737 154.566269,422.934387 158.349457,430.240417 
	C159.504196,432.470490 160.866547,432.740417 163.205185,432.060333 
	C171.575867,429.626343 179.975418,429.971100 188.315353,432.419220 
	C197.775589,435.196167 205.225403,440.637512 210.094849,449.467651 
	C218.985672,443.477448 228.424347,442.131317 238.240723,443.808563 
	C248.074036,445.488739 256.324280,450.201874 262.309052,458.879150 
	C270.623535,451.417114 280.109070,448.242126 290.665741,448.831329 
	C301.275879,449.423523 310.814575,452.853058 318.083221,461.637177 
	C325.701050,452.789215 335.397675,449.399689 346.236786,448.754730 
	C357.180511,448.103546 366.606415,452.319458 375.327667,458.906921 
	C380.988190,450.009796 388.699097,445.293854 398.405762,443.683044 
	C408.108063,442.072937 417.232056,443.968201 425.859283,448.451569 
	C437.600494,430.360657 454.337250,427.757385 473.544708,432.265198 
	C477.980042,422.918579 485.873291,418.399200 495.223389,415.817017 
	C498.295044,414.968689 501.195465,413.624390 503.770660,411.764313 
	C511.885406,405.902954 516.320740,398.153687 515.625244,387.889557 
	C515.363281,384.023621 513.884094,381.810120 509.409180,382.103546 
	C504.098633,382.451721 498.747314,382.245361 493.415192,382.171661 
	C490.336121,382.129120 486.881622,381.925751 486.938171,377.769958 
	C486.988708,374.053467 490.012512,373.646179 493.085663,373.544342 
	C497.945801,373.383270 502.798218,372.988586 507.884094,372.678741 
	C506.101685,367.507599 503.023438,365.866302 498.417145,365.998383 
	C490.757263,366.217957 483.086395,366.099945 475.420685,366.048737 
	C472.120514,366.026703 468.345886,365.528870 468.254456,361.542633 
	C468.160950,357.466003 472.014282,357.677246 475.031708,357.567749 
	C480.764465,357.359650 486.556946,357.971069 492.717468,356.426300 
	C487.874451,352.024323 483.283661,348.743866 476.613586,349.078735 
	C468.801025,349.470947 460.952393,349.130280 453.119476,349.139282 
	C449.775818,349.143127 446.115021,348.868683 446.072327,344.687347 
	C446.030487,340.587158 449.768280,340.657623 452.800385,340.623138 
	C457.769379,340.566650 462.739441,340.607849 468.760529,340.607849 
	C460.837677,334.710358 453.664246,333.931915 445.553467,336.627991 
	C438.129364,339.095734 430.628723,341.337189 423.354034,344.231659 
	C394.982880,355.519989 369.487366,371.077332 348.676117,393.835968 
	C340.991425,402.239807 334.671997,411.627472 327.747437,420.580933 
	C324.825073,424.359558 321.013031,426.712830 316.102600,425.899261 
	C311.073883,425.066071 307.777161,421.824554 306.203522,417.027832 
	C304.753967,412.609192 306.888733,408.907135 309.032379,405.292877 
	C327.281372,374.525208 352.509705,351.167999 384.230377,334.797943 
	C392.897491,330.325165 401.786896,326.283142 411.861267,321.422516 
	C400.589294,319.183105 390.779419,315.887085 380.325897,318.001221 
	C368.179657,320.457611 356.610931,324.715790 345.451080,329.991425 
	C310.035400,346.733551 282.482025,372.546387 260.222137,404.391296 
	C256.500183,409.715973 252.974670,415.191132 249.014343,420.331726 
	C245.958969,424.297607 241.599594,426.049255 236.582977,424.971497 
	C231.812531,423.946655 229.507812,420.304962 228.165298,415.941772 
	C227.085007,412.430786 228.480759,409.320312 230.099289,406.407196 
	C249.705566,371.118530 275.483643,341.556061 310.213226,320.334808 
	C314.704346,317.590546 319.190125,314.837616 323.678375,312.088715 
	C269.388672,310.025848 216.982895,317.557739 165.862503,339.561584 
	C171.566757,341.020294 176.051727,340.458984 180.489014,340.608032 
	C183.086517,340.695282 185.216370,341.532654 185.412964,344.453369 
	C185.609543,347.374207 183.484283,348.508514 181.043884,349.004547 
	C179.755173,349.266479 178.390259,349.193329 177.059326,349.201141 
	C169.559662,349.245056 162.048325,349.536652 154.563644,349.215393 
	C148.148132,348.940063 143.961823,352.574554 139.569397,356.460510 
	C145.303619,357.014618 150.932343,356.846497 156.543961,357.083466 
	C159.477020,357.207306 163.113785,357.453583 163.119217,361.593567 
	C163.124786,365.841034 159.472458,365.803162 156.522537,365.908051 
	C151.195297,366.097443 145.858139,366.007202 139.538040,366.040924 
M124.241791,504.300415 
	C127.432724,510.016632 129.200623,516.672668 135.184830,520.612854 
	C133.705475,516.249512 131.653458,512.140564 130.094299,507.852509 
	C128.997330,504.835541 129.352509,501.649475 132.750473,500.186157 
	C136.023163,498.776825 138.544769,500.367676 140.307800,503.230103 
	C140.829437,504.077118 141.211639,505.010010 141.658051,505.903381 
	C145.676712,513.945557 149.626221,522.023376 153.745224,530.013855 
	C155.626709,533.663757 157.740219,537.238525 162.103210,539.167969 
	C162.173996,535.148743 161.587830,531.060059 166.263336,529.810730 
	C170.875443,528.578308 173.252930,531.589844 175.342926,535.089722 
	C177.389587,538.516968 179.643173,541.822083 181.847610,545.153137 
	C183.243134,547.261902 184.863449,548.930542 187.527008,549.680969 
	C212.238632,556.643372 237.406769,561.063965 262.941833,563.507019 
	C264.685547,563.673828 266.241608,563.664368 266.782745,561.405396 
	C267.753723,557.352234 270.830933,556.603027 274.468964,556.652954 
	C282.961945,556.769470 291.460327,556.643311 299.948944,556.883057 
	C308.919220,557.136414 317.446869,554.995300 325.925537,552.541870 
	C328.305725,551.853149 331.114380,550.785706 330.656647,547.631897 
	C330.192078,544.430969 327.227325,544.438171 324.718231,544.406799 
	C318.556580,544.329651 312.393585,544.335388 306.231232,544.347229 
	C304.184540,544.351196 302.212341,544.156494 300.627319,542.707153 
	C298.393646,540.664673 297.034576,538.181824 298.051666,535.137451 
	C299.247650,531.557678 302.197998,530.116150 305.734070,529.697571 
	C319.276855,528.094360 332.742310,525.987976 346.081482,523.162598 
	C348.812531,522.584106 352.900177,522.422974 352.364655,518.254028 
	C351.856018,514.294373 348.054474,515.425781 345.400848,515.406433 
	C335.086578,515.331360 324.775543,515.606506 314.455933,515.572266 
	C285.940979,515.477478 257.636200,513.275574 229.395676,509.484924 
	C191.161514,504.352814 153.849838,495.728455 117.965363,481.349396 
	C116.372482,480.711121 114.807510,479.479492 112.412712,480.268860 
	C116.295280,488.154877 120.105072,495.893066 124.241791,504.300415 
M225.619507,463.023346 
	C222.056290,463.753906 219.260208,465.835907 216.615463,468.166870 
	C213.340576,471.053162 209.586929,472.430115 205.174835,472.286743 
	C200.159393,472.123749 195.211990,471.524292 190.356506,470.331360 
	C186.558868,469.398346 182.916031,468.016663 181.820602,463.624969 
	C180.701553,459.138641 183.830917,457.012299 187.170425,455.197845 
	C180.608856,448.130768 170.517944,447.034454 161.501801,453.042633 
	C150.523544,460.358368 140.215332,456.980286 129.841278,452.149872 
	C127.504646,451.061829 125.973198,448.838287 126.125656,446.075287 
	C126.288788,443.118958 128.116333,441.235199 130.798615,440.152588 
	C132.417496,439.499176 134.048798,438.876526 135.970276,438.124298 
	C128.955185,432.581146 122.289230,428.832611 113.881767,434.426758 
	C111.602577,435.943298 108.584877,436.337433 105.923271,437.294373 
	C100.785248,439.141693 96.350044,437.421021 92.490898,434.232574 
	C87.587952,430.181702 88.331482,425.099274 94.125336,422.429718 
	C96.936554,421.134399 99.973534,420.329071 102.978401,419.277405 
	C100.195465,413.763977 96.334373,411.678253 90.414787,413.472443 
	C85.808144,414.868683 80.998322,415.579437 76.336304,416.812317 
	C71.462288,418.101227 69.968651,422.208984 72.836960,426.408447 
	C74.141258,428.318054 75.725418,430.086029 77.409378,431.678497 
	C85.730164,439.547089 95.408318,445.442932 105.721481,450.220154 
	C128.299225,460.678436 151.822174,468.473846 175.990570,474.319153 
	C214.921417,483.734863 254.446182,489.181213 294.436707,490.636261 
	C335.787140,492.140839 376.959412,490.028137 417.769012,482.474304 
	C456.704559,475.267365 494.853180,465.622467 530.600525,448.030762 
	C541.160278,442.834198 550.881287,436.486115 558.596375,427.454041 
	C562.596863,422.770721 561.382385,418.845795 555.388977,417.086639 
	C551.245972,415.870575 546.999756,415.008698 542.806885,413.959381 
	C535.473267,412.124054 534.868286,412.373077 530.925049,419.122223 
	C533.924194,420.511902 537.082520,421.620819 539.859253,423.344513 
	C544.095581,425.974365 544.707214,430.365448 541.242249,433.368835 
	C537.505249,436.607971 533.160461,438.430603 527.934998,437.717346 
	C523.524963,437.115356 519.437744,435.526459 515.850281,433.220764 
	C510.385193,429.708313 502.475891,432.244568 497.234375,438.352325 
	C498.920715,438.800751 500.487793,439.213867 502.052856,439.634430 
	C505.509125,440.563202 508.249054,442.277527 508.592560,446.220612 
	C508.908234,449.843872 506.442993,451.679596 503.622925,452.959259 
	C493.207367,457.685516 482.792328,460.027405 472.346039,452.844238 
	C470.462616,451.549133 468.188782,450.709137 465.982941,450.016388 
	C459.028870,447.832336 451.740784,449.843323 447.631805,454.893127 
	C454.550934,459.537354 455.117950,464.475098 449.170258,468.290131 
	C440.948456,473.563812 424.901550,472.657898 417.322052,466.492157 
	C411.114685,461.442657 401.950470,460.855347 395.413330,465.008453 
	C393.712860,466.088806 392.817932,467.004852 393.526031,469.395691 
	C395.272247,475.291382 393.244476,478.607971 387.374786,480.132446 
	C381.154633,481.747925 374.787994,481.527618 368.483643,481.025482 
	C364.604553,480.716492 361.606262,478.511078 360.182617,474.711761 
	C359.383820,472.580078 358.287506,470.803833 356.095367,469.960480 
	C349.887909,467.572235 343.723877,467.658905 337.695374,470.537048 
	C336.059784,471.317932 334.759613,472.176941 334.884247,474.642975 
	C335.151398,479.928314 332.320099,482.972382 326.862183,483.207794 
	C320.542480,483.480377 314.198486,483.341766 307.869568,483.191467 
	C304.110199,483.102234 300.734619,481.008392 300.961609,477.351624 
	C301.398987,470.305450 296.781189,469.337219 291.939697,468.660400 
	C285.871796,467.812134 279.409271,467.743073 275.889099,473.806091 
	C272.560852,479.538635 268.073822,481.638580 261.865021,481.143585 
	C257.884125,480.826233 253.871750,480.701904 249.933685,480.098206 
	C244.540421,479.271393 240.456207,475.058105 241.975296,471.131348 
	C244.238968,465.279938 240.325592,464.552765 236.742554,463.507263 
	C233.404892,462.533325 229.922394,461.827972 225.619507,463.023346 
M519.712036,480.154053 
	C513.529602,481.063507 509.504181,484.109100 506.841858,490.168640 
	C502.440613,500.185944 497.766296,510.156860 491.384705,519.165894 
	C484.190094,529.322754 473.442108,535.150391 463.548370,542.085022 
	C469.458679,539.960510 475.419769,538.022461 480.844666,534.842834 
	C487.575287,530.897827 494.845947,527.453735 499.240387,520.669006 
	C507.467743,507.966583 514.225830,494.458374 519.712036,480.154053 
M567.514893,407.785919 
	C568.159180,396.568024 564.906738,392.015778 554.111023,389.253174 
	C551.395996,388.558411 548.607544,388.144470 545.845581,387.641357 
	C544.027344,387.310150 542.236145,387.506958 542.363098,389.843903 
	C542.490906,392.196320 540.514709,395.952606 544.458252,396.457581 
	C553.457336,397.609985 560.946167,401.030487 566.385010,408.468079 
	C566.462708,408.574341 566.958618,408.374725 567.514893,407.785919 
M65.071716,403.396729 
	C65.183357,404.996918 65.294998,406.597107 65.495392,409.469360 
	C70.535278,402.799652 76.042145,398.648193 83.408226,397.234467 
	C90.525993,395.868347 90.489555,395.678497 89.612709,387.545776 
	C84.835739,387.708252 80.180992,388.579224 75.559540,389.833557 
	C69.000618,391.613770 65.355919,395.690308 65.071716,403.396729 
M478.694458,503.802795 
	C472.057343,504.849701 466.529144,508.554047 460.665924,511.426208 
	C459.410522,512.041260 459.053589,513.546814 459.727631,514.943115 
	C460.617249,516.785828 462.375153,517.144714 463.985779,516.541565 
	C469.282227,514.558472 474.426056,512.187378 478.937531,508.714417 
	C480.526367,507.491302 481.318176,505.825653 478.694458,503.802795 
M415.335419,538.556213 
	C419.938904,537.179932 424.583649,535.924500 429.127289,534.372925 
	C431.186371,533.669739 433.349396,532.289917 432.464447,529.653748 
	C431.717102,527.427551 429.392548,527.911316 427.691803,528.360413 
	C423.049988,529.586060 418.450439,530.985229 413.876953,532.449463 
	C412.080017,533.024780 410.365967,534.170654 410.707214,536.335999 
	C411.017303,538.303345 412.793884,538.691040 415.335419,538.556213 
M101.674232,361.796326 
	C101.949699,361.240448 102.476295,360.732361 101.716759,359.597137 
	C96.940735,363.013855 92.182106,366.418091 87.065987,370.078094 
	C93.335701,371.841034 97.474869,370.409607 99.717796,364.792938 
	C100.076080,363.895721 100.791428,363.141113 101.674232,361.796326 
M536.596985,365.072845 
	C535.137512,363.849274 533.678040,362.625702 532.218567,361.402130 
	C535.278442,365.171936 534.870972,373.581665 543.969910,369.845184 
	C541.526123,368.243134 539.366394,366.827240 536.596985,365.072845 
z"/>
<path fill="#FFFFFF" opacity="1.000000" stroke="none" 
	d="
M302.086548,108.711914 
	C294.975525,92.266693 296.639893,76.811821 305.896179,62.198952 
	C310.020020,55.688618 314.115265,49.573803 314.204498,41.275707 
	C314.273193,34.889080 319.028351,30.992628 324.736786,30.728249 
	C331.063293,30.435244 336.641998,34.965454 338.233246,41.836174 
	C340.146942,50.098957 339.450470,58.056087 335.032837,65.465828 
	C333.584442,67.895271 332.142120,70.356468 330.420776,72.590248 
	C322.103912,83.382820 322.571442,94.327789 329.516205,105.532677 
	C333.635559,112.178970 337.895721,118.762787 340.803497,126.072914 
	C347.595764,143.148529 346.346405,159.615677 336.685181,175.274872 
	C333.542297,180.368851 329.939911,185.183411 326.471130,190.071411 
	C318.709564,201.008438 317.765869,212.058426 325.543915,223.458862 
	C327.696350,226.613739 329.559296,229.988480 331.316345,233.385834 
	C334.488129,239.518661 333.285095,244.928650 328.098083,248.837051 
	C323.113770,252.592728 315.664520,252.754288 311.633423,248.008759 
	C294.279053,227.578690 286.149811,204.013580 302.122406,179.096069 
	C305.173126,174.336853 308.535187,169.760498 311.980957,165.274384 
	C321.305084,153.135040 320.811523,140.749664 313.259705,128.064545 
	C309.514191,121.773079 305.296600,115.753922 302.086548,108.711914 
z"/>
<path fill="#FFFFFF" opacity="1.000000" stroke="none" 
	d="
M280.753754,174.629044 
	C276.727600,180.586182 272.975372,186.285431 269.045288,191.859268 
	C262.021118,201.821320 260.814789,211.893906 267.705811,222.510269 
	C270.416870,226.686981 272.763824,231.128403 274.957214,235.605728 
	C277.812866,241.434982 276.278748,247.147537 271.283783,250.604492 
	C265.644135,254.507614 259.102509,254.518997 254.993454,249.477890 
	C235.155533,225.140015 229.447372,200.735611 249.305267,173.552795 
	C253.028732,168.455902 256.989929,163.560822 259.677216,157.723770 
	C263.427063,149.578720 263.253235,141.603790 259.548462,133.652924 
	C257.443329,129.135132 254.917511,124.814743 252.628571,120.380966 
	C248.594467,112.566734 249.647842,105.847061 255.435196,102.200836 
	C261.878143,98.141518 269.718262,99.931145 274.391876,107.257698 
	C284.951752,123.811775 292.120972,141.256454 286.368042,161.469360 
	C285.087982,165.966858 283.193054,170.217957 280.753754,174.629044 
z"/>
<path fill="#FFFFFF" opacity="1.000000" stroke="none" 
	d="
M378.716675,212.021790 
	C380.657776,217.844360 383.811646,222.554749 386.699738,227.431091 
	C391.959930,236.312469 389.054230,245.364777 380.408875,247.695221 
	C375.594818,248.992889 371.033661,247.842422 368.071503,244.209213 
	C356.339233,229.818970 348.114441,214.158218 352.976471,194.656174 
	C355.198425,185.743515 360.242828,178.274292 365.521759,170.961670 
	C369.616669,165.289185 374.035950,159.803619 375.592865,152.739029 
	C377.287567,145.049286 375.524902,137.861267 372.205566,130.969742 
	C369.820862,126.018723 367.117584,121.220490 364.756683,116.258827 
	C361.730347,109.898682 363.529572,103.079124 368.976105,99.462379 
	C374.164032,96.017365 381.383545,96.931633 385.327759,102.923759 
	C394.496429,116.852814 403.203400,131.066528 402.482635,148.874863 
	C402.072235,159.016113 399.134979,168.176178 393.718597,176.591751 
	C390.025177,182.330383 385.941406,187.816574 382.188660,193.518646 
	C378.562225,199.028809 377.120026,205.063126 378.716675,212.021790 
z"/>
<path fill="#FFFFFF" opacity="1.000000" stroke="none" 
	d="
M207.641190,379.686493 
	C197.547623,386.805450 188.120544,394.195862 178.934845,401.900696 
	C175.939514,404.413116 172.606079,406.412445 168.550400,406.067505 
	C164.264496,405.703033 160.854507,403.536133 159.361725,399.404724 
	C157.812408,395.116943 158.023697,390.873352 161.536743,387.381653 
	C168.150345,380.808136 174.904449,374.385498 182.138779,368.489624 
	C197.462204,356.001343 214.371582,346.099213 232.276581,337.835083 
	C235.478775,336.357117 238.816299,335.276520 242.418335,335.792511 
	C247.308304,336.493011 250.884598,339.086456 252.140411,343.912354 
	C253.438431,348.900391 251.318619,352.739807 246.869934,355.166138 
	C233.411896,362.506104 220.288376,370.373474 207.641190,379.686493 
z"/>
<path fill="#FFFFFF" opacity="1.000000" stroke="none" 
	d="
M470.671631,384.362518 
	C474.047028,387.567841 476.487091,390.966949 475.885345,395.478241 
	C475.348694,399.501556 473.212952,402.710419 469.144653,403.984985 
	C464.936401,405.303345 460.963196,404.874908 457.616058,401.569763 
	C450.639099,394.680267 443.510010,388.023895 434.912537,383.054230 
	C429.629242,380.000336 428.293640,375.423187 430.509735,370.825745 
	C432.611084,366.466400 438.176208,364.203033 443.293854,365.773163 
	C447.478180,367.056915 451.078278,369.549194 454.577942,372.035919 
	C459.984985,375.877960 465.135834,380.080536 470.671631,384.362518 
z"/>
<path fill="#FFFFFF" opacity="1.000000" stroke="none" 
	d="
M378.652832,400.092407 
	C376.138428,395.985291 376.686615,392.346588 379.539795,389.219330 
	C382.607178,385.857330 386.667236,384.925903 390.978455,386.143005 
	C393.180054,386.764526 395.390778,387.822510 397.227905,389.182343 
	C403.934143,394.146179 410.161987,399.707489 415.683075,405.957245 
	C420.625916,411.552551 420.421539,417.603577 415.624359,421.954254 
	C410.689575,426.429688 404.186340,425.981476 399.396332,420.045929 
	C393.372223,412.581055 386.100555,406.542328 378.652832,400.092407 
z"/>
</svg>